<svg id="Layer_1" data-name="Layer 1" xmlns="http://www.w3.org/2000/svg" viewBox="0 0 223.02 322.13"><defs><style>.cls-1{fill:#87181b;}.cls-2{fill:#c51718;}</style></defs><title>e market final logo</title><path class="cls-1" d="M144.62,24.67a19.76,19.76,0,0,0-18.53-12.44A19.36,19.36,0,0,0,116,15a12.74,12.74,0,0,0-4,3.08L31.07,99a19.83,19.83,0,0,0-5.86,14.09,20.66,20.66,0,0,0,5.86,14.33l5.31,5.07,5.14,5.15L31.07,148.11a19.19,19.19,0,0,0-5.86,14.09,19.81,19.81,0,0,0,5.86,14.26L109.78,255l2.22,2.22a12.63,12.63,0,0,0,4,3.09,13.8,13.8,0,0,0,2.93,1.34l1.11-5.38a14.23,14.23,0,0,1-4.43-2.93l-4.59-4.59L35,172.66a14.74,14.74,0,0,1,0-20.75l10.37-10.37,72.61,72.53,8.79,8.79,1.27-6.42-8.79-8.79-70-70,91.22-91.22A19.45,19.45,0,0,0,144.62,24.67ZM126.09,53.09,46.43,132.51l-1.11,1.27L35,123.56a14.91,14.91,0,0,1,0-20.9L115.64,22a14.93,14.93,0,0,1,10.45-4.27,14.46,14.46,0,0,1,13.54,9,14.69,14.69,0,0,1-3.09,15.92Z" transform="translate(-20.6 -12.21)"/><path class="cls-2" d="M38.48,120a9.69,9.69,0,0,1,0-13.71l80.78-80.77a9.74,9.74,0,0,1,6.85-2.86,9.5,9.5,0,0,1,8.93,6A9.6,9.6,0,0,1,133,39.17L45.28,126.79Z" transform="translate(-20.6 -12.21)"/><path class="cls-2" d="M38.51,169.1a9.75,9.75,0,0,1-2.9-6.9,9.36,9.36,0,0,1,2.87-6.78l6.77-6.83,78.41,78.24-4.55,22.86Z" transform="translate(-20.6 -12.21)"/><path class="cls-1" d="M222.69,208.92l10.45-10.21A20.13,20.13,0,0,0,239,184.37a19.19,19.19,0,0,0-5.86-14.09L153.25,90.39l-1-1a12.67,12.67,0,0,0-4-3.09,18.92,18.92,0,0,0-4.35-1.9l-1,5.46a14.47,14.47,0,0,1,5.78,3.41l3.4,3.4,77.28,77.52a14.25,14.25,0,0,1,4.28,10.21,14.57,14.57,0,0,1-4.28,10.46L218.89,205l-73.8-73.72-8.87-8.87L135,128.87l80,80-91.22,91.22a19.58,19.58,0,0,0-4.19,21.93,19.84,19.84,0,0,0,18.52,12.27,19.42,19.42,0,0,0,10.06-2.77,12.67,12.67,0,0,0,4-3.09l20.9-20.9,60-59.86A20.49,20.49,0,0,0,239,233.47a19.72,19.72,0,0,0-5.86-14.1Zm6.57,35L165.6,307.58l-17,17A15.11,15.11,0,0,1,138.12,329a14.6,14.6,0,0,1-13.54-9.19,14.31,14.31,0,0,1,.56-12.27,12,12,0,0,1,2.53-3.64l10.45-10.45,79.66-79.42,1.11-1.27,10.37,10.37A14.73,14.73,0,0,1,229.26,243.92Z" transform="translate(-20.6 -12.21)"/><path class="cls-2" d="M138.1,324a9.49,9.49,0,0,1-8.93-6,9.61,9.61,0,0,1,2.1-10.56l87.66-87.61,6.8,6.8a9.68,9.68,0,0,1,0,13.7L145,321.13A9.77,9.77,0,0,1,138.1,324Z" transform="translate(-20.6 -12.21)"/><path class="cls-2" d="M139.29,118.48l4.55-22.64a9.73,9.73,0,0,1,1.09,1l80.78,80.76a9.65,9.65,0,0,1,2.9,6.9,9.51,9.51,0,0,1-2.9,6.8L219,198.07Z" transform="translate(-20.6 -12.21)"/><path class="cls-1" d="M167.66,18.41l-14.41,72L152,96.64l-.63,3.41-5.62,28-.64,3.24-1.34,6.34L128,216.44l-1.27,6.42-.63,3.24-5.46,27.48-.56,2.69L119,261.65l-13.7,68.5a5.08,5.08,0,0,1-5.06,4.19,4.43,4.43,0,0,1-1-.08,5.21,5.21,0,0,1-4-6.09L109.78,255l1.27-6.25.63-3.33,5.62-28.11.63-3.24,1.27-6.42L135,128.87l1.26-6.42.64-3.24,5.38-26.77.56-2.61,1-5.46,13.62-67.94a5.2,5.2,0,1,1,10.21,2Z" transform="translate(-20.6 -12.21)"/><circle class="cls-1" cx="218.41" cy="196.75" r="4.62"/><circle class="cls-1" cx="4.62" cy="125.46" r="4.62"/></svg>