<svg id="Layer_1" data-name="Layer 1" xmlns="http://www.w3.org/2000/svg" viewBox="0 0 646.81 491.67"><defs><style>.cls-1{fill:#f6f6f6;}.cls-2{fill:#fff;}</style></defs><title>logo-white</title><path class="cls-1" d="M243.05,658.12H182.91q1.38,8.64,6.28,12.93t13.31,4.28a23.06,23.06,0,0,0,11-2.45,20.36,20.36,0,0,0,7.72-7.43L240,674.84q-6.54,10.53-15.83,15.63T202,695.56q-19.42,0-30.76-11.58t-11.36-31.17q0-18.84,11.88-31t30.4-12.16q19.08,0,30.18,11.39t11.1,31.05c0,.7,0,1.48-.09,2.32S243.22,656.48,243.05,658.12Zm-23-14q-1-7.59-5.5-11.47c-3-2.58-7.13-3.87-12.36-3.87s-9.4,1.29-12.54,3.87-5.12,6.41-6,11.47Z" transform="translate(-159.89 -203.89)"/><path class="cls-2" d="M252.35,692.38l18.19-119.45h26.77l23,70.33a58,58,0,0,1,1.59,6.45c.58,2.83,1.1,6.06,1.6,9.71.42-3.7.92-7,1.46-9.91a44.33,44.33,0,0,1,1.56-6.41l23.42-70.17h26.35l18.27,119.45H370.33l-8.73-72c-.66-5.33-1.08-9.36-1.3-12.07S360,603,360,600.67c0-1.25,0-2.19,0-2.82s.06-1.18.13-1.67q-1.23,7-2.33,12.12a73.91,73.91,0,0,1-2,7.71l-25.31,76.37H316.15L291.26,616c-.21-.71-.69-2.67-1.41-5.87s-1.76-7.89-3.08-14v3.5a170.7,170.7,0,0,1-1.46,20.4l-.08.33-8.64,72Z" transform="translate(-159.89 -203.89)"/><path class="cls-2" d="M489.3,692.38H466.78l.33-11.5A30.53,30.53,0,0,1,455.72,692q-6.66,3.56-16.19,3.55-15.91,0-25.66-11.83t-9.76-31.25q0-20.24,9.59-31.53t26.64-11.31a29.93,29.93,0,0,1,15.62,4,32.08,32.08,0,0,1,11.31,11.92V612.34h22Zm-21.21-40.14q0-10.77-5.44-17T448,628.9q-9.47,0-14.88,6.24t-5.44,17.1c0,7.23,1.79,12.87,5.35,16.88s8.5,6,14.81,6,11.4-2,14.93-6S468.09,659.47,468.09,652.24Z" transform="translate(-159.89 -203.89)"/><path class="cls-2" d="M533.6,632.9q3.49-11.67,10.07-17.46a23.73,23.73,0,0,1,16.29-5.8,51.47,51.47,0,0,1,7.26.82l1.46.24-3.5,25a29.44,29.44,0,0,0-5.27-1.59,28.67,28.67,0,0,0-5.59-.53c-7.06,0-12.16,1.81-15.25,5.43s-4.65,9.67-4.65,18.15v35.25H511.16v-80h22.93Z" transform="translate(-159.89 -203.89)"/><path class="cls-2" d="M579.21,565.91h23.27v81.84l29.69-35.41h27.9l-32.22,35.41,35.41,44.63H634.54L602.48,650v42.43H579.21Z" transform="translate(-159.89 -203.89)"/><path class="cls-2" d="M751.79,658.12H691.65q1.38,8.64,6.28,12.93t13.31,4.28a23.09,23.09,0,0,0,11-2.45,20.36,20.36,0,0,0,7.72-7.43l18.76,9.39q-6.52,10.53-15.82,15.63t-22.12,5.09q-19.41,0-30.75-11.58t-11.36-31.17q0-18.84,11.88-31t30.4-12.16q19.08,0,30.18,11.39t11.09,31.05c0,.7,0,1.48-.08,2.32S752,656.48,751.79,658.12Zm-23-14q-1-7.59-5.5-11.47c-3-2.58-7.14-3.87-12.36-3.87s-9.4,1.29-12.54,3.87-5.12,6.41-6,11.47Z" transform="translate(-159.89 -203.89)"/><path class="cls-2" d="M772.26,692.38V630.54H761.09v-18.2h11.17v-26.6h23.25v26.6H806.7v18.2H795.51v61.84Z" transform="translate(-159.89 -203.89)"/><path class="cls-2" d="M495.81,216.34a19.76,19.76,0,0,0-18.53-12.43,19.45,19.45,0,0,0-10.06,2.77,12.63,12.63,0,0,0-4,3.09l-80.93,80.92a19.85,19.85,0,0,0-5.86,14.09,20.68,20.68,0,0,0,5.86,14.34l5.31,5.06,5.14,5.15-10.45,10.45a19.19,19.19,0,0,0-5.86,14.1,19.81,19.81,0,0,0,5.86,14.25L461,446.68l2.22,2.21a12.63,12.63,0,0,0,4,3.09,13.84,13.84,0,0,0,2.93,1.35l1.11-5.39a14.23,14.23,0,0,1-4.43-2.93l-4.59-4.59-76.1-76.09a14.74,14.74,0,0,1,0-20.75l10.38-10.37,72.6,72.53,8.79,8.79,1.27-6.41-8.79-8.79-70-70,91.21-91.22A19.45,19.45,0,0,0,495.81,216.34Zm-18.53,28.42-79.66,79.42-1.1,1.27-10.38-10.21a14.92,14.92,0,0,1,0-20.91l80.69-80.68a14.94,14.94,0,0,1,10.45-4.28,14.45,14.45,0,0,1,13.54,9,14.67,14.67,0,0,1-3.09,15.91Z" transform="translate(-159.89 -203.89)"/><path class="cls-2" d="M389.67,311.66a9.69,9.69,0,0,1,0-13.71l80.78-80.77a9.77,9.77,0,0,1,6.85-2.85,9.49,9.49,0,0,1,8.93,6,9.62,9.62,0,0,1-2.09,10.56l-87.67,87.61Z" transform="translate(-159.89 -203.89)"/><path class="cls-2" d="M389.7,360.77a9.74,9.74,0,0,1-2.9-6.89,9.38,9.38,0,0,1,2.87-6.79l6.78-6.83,78.4,78.25-4.55,22.86Z" transform="translate(-159.89 -203.89)"/><path class="cls-2" d="M573.88,400.59l10.45-10.21a20.12,20.12,0,0,0,5.86-14.33,19.21,19.21,0,0,0-5.86-14.1l-79.89-79.89-1-1a12.67,12.67,0,0,0-4-3.09A19.36,19.36,0,0,0,495,276l-1,5.47a14.38,14.38,0,0,1,5.78,3.4l3.4,3.4,77.28,77.52a14.29,14.29,0,0,1,4.28,10.22,14.53,14.53,0,0,1-4.28,10.45l-10.37,10.21L496.28,323l-8.86-8.87-1.27,6.41,80.05,80L475,491.81a19.58,19.58,0,0,0-4.19,21.93A19.84,19.84,0,0,0,489.32,526a19.33,19.33,0,0,0,10.05-2.78,12.78,12.78,0,0,0,4-3.08l20.9-20.91,60-59.86a20.47,20.47,0,0,0,5.86-14.25,19.69,19.69,0,0,0-5.86-14.09Zm6.57,35-63.66,63.66-17,17a15.1,15.1,0,0,1-10.45,4.43,14.58,14.58,0,0,1-13.54-9.18,14.3,14.3,0,0,1,.55-12.28,12.28,12.28,0,0,1,2.53-3.64l10.46-10.45L569,405.74l1.11-1.27,10.37,10.38A14.71,14.71,0,0,1,580.45,435.59Z" transform="translate(-159.89 -203.89)"/><path class="cls-2" d="M489.29,515.65a9.47,9.47,0,0,1-8.93-6,9.61,9.61,0,0,1,2.1-10.56l87.66-87.6,6.8,6.79a9.69,9.69,0,0,1,0,13.71l-80.78,80.78A9.8,9.8,0,0,1,489.29,515.65Z" transform="translate(-159.89 -203.89)"/><path class="cls-2" d="M490.48,310.15,495,287.51a10.85,10.85,0,0,1,1.09,1l80.78,80.77a9.54,9.54,0,0,1,0,13.7l-6.75,6.8Z" transform="translate(-159.89 -203.89)"/><path class="cls-2" d="M518.85,210.08l-14.41,72-1.27,6.25-.63,3.41-5.62,28-.64,3.25-1.34,6.33-15.76,78.79-1.27,6.41-.63,3.25-5.46,27.47-.56,2.69-1.11,5.39-13.69,68.49a5.11,5.11,0,0,1-5.07,4.2,4.48,4.48,0,0,1-1-.08,5.22,5.22,0,0,1-4-6.1L461,446.68l1.27-6.26.63-3.32L468.49,409l.63-3.25,1.27-6.41,15.76-78.79,1.27-6.41.63-3.25,5.38-26.76.56-2.61,1-5.47,13.62-67.94a5.2,5.2,0,0,1,10.21,2Z" transform="translate(-159.89 -203.89)"/><ellipse class="cls-2" cx="427.99" cy="196.75" rx="2.31" ry="4.62"/><circle class="cls-2" cx="216.51" cy="125.46" r="4.62"/></svg>