<?xml version="1.0" standalone="no"?>
<!DOCTYPE svg PUBLIC "-//W3C//DTD SVG 20010904//EN"
 "http://www.w3.org/TR/2001/REC-SVG-20010904/DTD/svg10.dtd">
<svg version="1.0" xmlns="http://www.w3.org/2000/svg"
 width="512.000000pt" height="512.000000pt" viewBox="0 0 512.000000 512.000000"
 preserveAspectRatio="xMidYMid meet">

<g transform="translate(0.000000,512.000000) scale(0.100000,-0.100000)"
fill="#000000" stroke="none">
<path d="M929 5025 c-479 -88 -836 -450 -914 -925 -13 -82 -15 -286 -15 -1522
0 -955 4 -1452 11 -1505 60 -444 382 -812 811 -928 146 -40 291 -46 920 -43
l578 3 27 27 c37 37 37 89 0 126 l-27 27 -688 5 -687 6 -90 27 c-320 100 -554
342 -644 667 l-26 95 -3 1410 c-4 1503 -2 1560 44 1708 83 265 297 495 554
592 167 63 55 59 1620 63 1000 2 1455 0 1525 -8 372 -41 666 -287 791 -660
l29 -85 5 -640 c4 -492 8 -645 18 -662 27 -49 94 -58 139 -19 l28 24 3 544 c5
741 -6 836 -118 1065 -145 296 -396 500 -728 591 l-97 27 -1495 2 c-1235 1
-1508 -1 -1571 -12z"/>
<path d="M1783 4393 c-7 -2 -144 -157 -304 -344 -160 -186 -295 -339 -300
-339 -5 0 -90 61 -189 135 -152 113 -186 135 -216 135 -49 0 -84 -37 -84 -88
0 -49 11 -59 268 -251 227 -169 245 -176 301 -123 17 15 170 191 341 391 289
338 310 366 310 401 0 61 -70 107 -127 83z"/>
<path d="M2406 3914 c-34 -35 -35 -83 -2 -121 l24 -28 839 -3 c557 -2 850 0
874 7 64 19 83 98 34 146 l-24 25 -859 0 -859 0 -27 -26z"/>
<path d="M1783 3113 c-7 -2 -144 -157 -304 -344 -160 -186 -295 -339 -300
-339 -5 0 -90 61 -189 135 -152 113 -186 135 -216 135 -49 0 -84 -37 -84 -88
0 -49 11 -59 268 -251 227 -169 245 -176 301 -123 17 15 170 191 341 391 289
338 310 366 310 401 0 61 -70 107 -127 83z"/>
<path d="M2406 2634 c-34 -35 -35 -83 -2 -121 l24 -28 839 -3 c557 -2 850 0
874 7 64 19 83 98 34 146 l-24 25 -859 0 -859 0 -27 -26z"/>
<path d="M4490 2464 c-38 -14 -152 -123 -775 -745 l-730 -729 -94 -348 c-68
-251 -100 -354 -116 -372 -64 -73 -71 -115 -26 -161 42 -41 80 -39 132 8 38
35 59 42 396 133 l355 97 715 714 c534 534 721 726 740 763 36 71 41 146 12
221 -20 53 -41 79 -183 221 -99 99 -178 170 -206 184 -58 30 -158 36 -220 14z
m133 -178 c39 -17 292 -271 305 -307 19 -49 3 -73 -139 -215 l-139 -139 -192
193 -193 192 135 136 c121 121 156 151 183 153 4 1 22 -5 40 -13z m-570 -1258
l-468 -468 -192 192 -193 193 467 467 468 468 192 -192 193 -193 -467 -467z
m-653 -549 c0 -8 -381 -112 -387 -106 -2 3 19 93 49 201 l53 196 142 -142 c79
-79 143 -145 143 -149z"/>
<path d="M1788 1743 c-10 -2 -149 -157 -309 -344 -160 -186 -295 -339 -300
-339 -5 0 -90 61 -189 135 -191 142 -211 152 -260 118 -35 -23 -40 -33 -40
-74 0 -27 8 -42 33 -66 39 -37 393 -305 424 -321 24 -13 62 -15 88 -5 10 3
165 179 346 390 310 361 329 385 329 422 0 32 -6 44 -31 65 -29 25 -52 29 -91
19z"/>
</g>
</svg>
